<?xml version="1.0" standalone="no"?>
<!DOCTYPE svg PUBLIC "-//W3C//DTD SVG 20010904//EN"
 "http://www.w3.org/TR/2001/REC-SVG-20010904/DTD/svg10.dtd">
<svg version="1.0" xmlns="http://www.w3.org/2000/svg"
 width="700.000000pt" height="700.000000pt" viewBox="0 0 700.000000 700.000000"
 preserveAspectRatio="xMidYMid meet">
<metadata>
Created by potrace 1.11, written by Peter Selinger 2001-2013
</metadata>
<g transform="translate(0.000000,700.000000) scale(0.100000,-0.100000)"
fill="#000000" stroke="none">
<path d="M2902 5506 c-4 -7 -7 -1038 -3 -1077 1 -4 258 -6 571 -7 l570 0 1 22
c4 140 -1 1059 -6 1064 -10 11 -1126 9 -1133 -2z"/>
<path d="M2364 5480 c-283 -71 -500 -207 -654 -412 -112 -148 -194 -351 -215
-531 -3 -23 -8 -58 -10 -78 l-5 -36 545 0 c300 0 545 3 546 6 0 3 1 248 2 544
l2 538 -51 -2 c-27 -1 -99 -15 -160 -29z"/>
<path d="M1490 4076 c1 -39 29 -191 50 -266 136 -478 478 -781 956 -846 27 -3
57 -8 67 -10 16 -3 17 30 17 571 l0 573 -545 0 -545 -1 0 -21z"/>
<path d="M2909 4091 c-1 -3 -2 -261 -3 -572 l-1 -565 570 0 570 1 3 571 2 572
-570 0 c-313 0 -571 -3 -571 -7z"/>
<path d="M4377 4091 c-3 -6 -1 -1119 2 -1132 2 -9 1081 -6 1082 3 8 49 -24
218 -63 333 -122 366 -358 617 -688 733 -111 39 -325 80 -333 63z"/>
<path d="M2899 2528 c-3 -515 0 -1030 6 -1036 4 -4 261 -7 571 -7 495 0 564 2
565 15 1 18 1 1100 0 1118 -1 9 -122 12 -571 12 l-570 0 -1 -102z"/>
<path d="M4369 2613 c0 -10 -2 -266 -2 -570 -2 -483 0 -552 13 -556 24 -6 237
38 323 67 269 90 492 258 629 473 65 101 145 306 163 418 17 103 24 168 20
176 -4 5 -233 9 -576 9 -535 0 -569 -1 -570 -17z"/>
</g>
</svg>
