<svg version="1" xmlns="http://www.w3.org/2000/svg" width="933.333" height="933.333" viewBox="0 0 700.000000 700.000000"><path d="M290.2 149.4c-.4.7-.7 103.8-.3 107.7.1.4 25.8.6 57.1.7h57l.1-2.2c.4-14-.1-105.9-.6-106.4-1-1.1-112.6-.9-113.3.2zM236.4 152c-28.3 7.1-50 20.7-65.4 41.2-11.2 14.8-19.4 35.1-21.5 53.1-.3 2.3-.8 5.8-1 7.8l-.5 3.6h54.5c30 0 54.5-.3 54.6-.6 0-.3.1-24.8.2-54.4l.2-53.8-5.1.2c-2.7.1-9.9 1.5-16 2.9zM149 292.4c.1 3.9 2.9 19.1 5 26.6 13.6 47.8 47.8 78.1 95.6 84.6 2.7.3 5.7.8 6.7 1 1.6.3 1.7-3 1.7-57.1v-57.3h-54.5l-54.5.1v2.1zM290.9 290.9c-.1.3-.2 26.1-.3 57.2l-.1 56.5h57l57-.1.3-57.1.2-57.2h-57c-31.3 0-57.1.3-57.1.7zM437.7 290.9c-.3.6-.1 111.9.2 113.2.2.9 108.1.6 108.2-.3.8-4.9-2.4-21.8-6.3-33.3-12.2-36.6-35.8-61.7-68.8-73.3-11.1-3.9-32.5-8-33.3-6.3zM289.9 447.2c-.3 51.5 0 103 .6 103.6.4.4 26.1.7 57.1.7 49.5 0 56.4-.2 56.5-1.5.1-1.8.1-110 0-111.8-.1-.9-12.2-1.2-57.1-1.2h-57l-.1 10.2zM436.9 438.7c0 1-.2 26.6-.2 57-.2 48.3 0 55.2 1.3 55.6 2.4.6 23.7-3.8 32.3-6.7 26.9-9 49.2-25.8 62.9-47.3 6.5-10.1 14.5-30.6 16.3-41.8 1.7-10.3 2.4-16.8 2-17.6-.4-.5-23.3-.9-57.6-.9-53.5 0-56.9.1-57 1.7z"/></svg>